<svg width="256" height="256" viewBox="0 0 256 256" fill="none" xmlns="http://www.w3.org/2000/svg">
  <defs>
    <linearGradient id="cs-bg" x1="28" y1="24" x2="228" y2="236" gradientUnits="userSpaceOnUse">
      <stop offset="0" stop-color="#4F46E5"/>
      <stop offset="1" stop-color="#7C3AED"/>
    </linearGradient>
    <linearGradient id="cs-mark" x1="66" y1="76" x2="192" y2="176" gradientUnits="userSpaceOnUse">
      <stop offset="0" stop-color="#F8FAFC"/>
      <stop offset="1" stop-color="#E2E8F0"/>
    </linearGradient>
  </defs>
  <rect x="12" y="12" width="232" height="232" rx="56" fill="#0B1220"/>
  <rect x="20" y="20" width="216" height="216" rx="48" fill="url(#cs-bg)"/>
  <path d="M74 86C74 72.7452 84.7452 62 98 62H158C171.255 62 182 72.7452 182 86V170C182 183.255 171.255 194 158 194H98C84.7452 194 74 183.255 74 170V86Z" fill="#0B1220" fill-opacity="0.28"/>
  <path d="M101 106C101 94.402 110.402 85 122 85H147C156.389 85 164 92.6112 164 102V109H147C138.163 109 131 116.163 131 125V130C131 138.837 138.163 146 147 146H164V154C164 163.389 156.389 171 147 171H122C110.402 171 101 161.598 101 150V106Z" fill="url(#cs-mark)"/>
  <path d="M164 109V146H146C137.163 146 130 138.837 130 130V125C130 116.163 137.163 109 146 109H164Z" fill="#F8FAFC"/>
  <path d="M92 58L103 46" stroke="#E2E8F0" stroke-width="8" stroke-linecap="round" opacity="0.9"/>
  <path d="M164 205L178 219" stroke="#C4B5FD" stroke-width="8" stroke-linecap="round" opacity="0.9"/>
</svg>
